<svg xmlns="http://www.w3.org/2000/svg" xmlns:xlink="http://www.w3.org/1999/xlink" width="2480" height="2408" viewBox="0 0 2480 2408">
  <defs>
    <clipPath id="clip-Custom_Size_3">
      <rect width="2480" height="2408"/>
    </clipPath>
  </defs>
  <g id="Custom_Size_3" data-name="Custom Size – 3" clip-path="url(#clip-Custom_Size_3)">
    <rect width="2480" height="2408" fill="#fff"/>
    <rect id="DCoders-without_bg" data-name="DCoders-without bg" width="3606" height="3606" transform="translate(-563 -599)" fill="none"/>
    <g id="Group_6" data-name="Group 6" transform="translate(-25)">
      <path id="Subtraction_1" data-name="Subtraction 1" d="M556.657,354.012h0L.515,353.686,0,.275,556.59,0l.068,354.01ZM30.055,29.09,29.922,324.5H526.964l.211-295.367Z" transform="translate(986.582 576.478)"/>
      <path id="Path_3" data-name="Path 3" d="M1708.235,901.231v29.217l-144.1.162v-29.38Z"/>
      <path id="Path_4" data-name="Path 4" d="M1218.382,655.962v21.671h-21.122v150.6h21.122v21.945h-42.794V655.962Z"/>
      <path id="Path_5" data-name="Path 5" d="M1391.545,648.761h28.8v28.8h-28.8Z"/>
      <path id="Path_6" data-name="Path 6" d="M1391.545,706.094h28.529V734.45l-12,15.26h-16.526Z"/>
      <path id="Path_7" data-name="Path 7" d="M45.484,213H31V193.865C59.992,179.057,77.648,149.912,77.648,117S59.992,53.943,31,39.135V19H45.265a98.438,98.438,0,0,1,8.867,5.957A103.667,103.667,0,0,1,68.858,38.511a110.162,110.162,0,0,1,12.15,16.428,115.8,115.8,0,0,1,9.174,18.855A121.419,121.419,0,0,1,98,117a121.427,121.427,0,0,1-7.819,43.206,115.779,115.779,0,0,1-9.174,18.855,110.139,110.139,0,0,1-12.15,16.428c-4.5,5.023-9.666,8.646-14.933,12.617C51.947,209.6,47.576,211.659,45.484,213Z" transform="translate(1252 637)"/>
      <g id="Group_2" data-name="Group 2">
        <path id="Subtraction_2" data-name="Subtraction 2" d="M239,352H20A20,20,0,0,1,0,332V20A20,20,0,0,1,20,0H239a20,20,0,0,1,20,20V332a20,20,0,0,1-20,20ZM58,117V298H202V117Z" transform="translate(692 992)"/>
        <path id="Union_4" data-name="Union 4" d="M202,352H0V0H232a27,27,0,0,1,27,27V93a27,27,0,0,1-27,27h-4a27,27,0,0,1-27-27V60H116V293h91a29,29,0,0,1,29,29v1a29,29,0,0,1-29,29Z" transform="translate(374 992)"/>
        <path id="Subtraction_4" data-name="Subtraction 4" d="M165.5,351H20.5A20.5,20.5,0,0,1,0,330.5V20.5A20.5,20.5,0,0,1,20.5,0h145a20.4,20.4,0,0,1,7.514,1.421c5.09.821,10.018,3.4,15.067,7.883,4.545,4.037,9.121,9.57,13.989,16.918,9.108,13.746,17.936,31.916,27.282,51.153,6.654,13.7,13.534,27.858,21.016,41.482,7.578,13.8,12.366,23.61,15.527,31.813,3.327,8.635,4.933,15.794,5.051,22.528.238,13.488-5.424,25.485-14.8,45.36l0,.007c-1.83,3.878-3.722,7.887-5.772,12.328-3.349,7.256-6.771,15-10.08,22.479-9.568,21.639-19.462,44.014-30.525,61.842-5.976,9.63-11.729,17.053-17.588,22.692a56.228,56.228,0,0,1-9.661,7.575,37.316,37.316,0,0,1-10.348,4.408A20.465,20.465,0,0,1,165.5,351ZM66,61a6.007,6.007,0,0,0-6,6V289a6.007,6.007,0,0,0,6,6H85.9a20.88,20.88,0,0,0,8.07-1.606c10.1-2.7,20.249-12.2,31.027-29.059,9.615-15.035,18.216-33.537,25.127-48.4,1.374-2.955,2.641-5.621,3.867-8.2l.012-.025c6.3-13.25,10.1-21.248,9.941-30.24-.152-8.578-3.769-18.058-13.819-36.227-4.122-7.453-8.054-15.083-11.856-22.462-7.417-14.4-14.424-27.994-21.8-38.3-8.259-11.545-15.86-17.392-23.92-18.4A20.981,20.981,0,0,0,85.9,61Z" transform="translate(1007.5 992.5)"/>
      </g>
      <path id="Union_6" data-name="Union 6" d="M146,352H20A20,20,0,0,1,0,332V167a20,20,0,0,1,20-20h8V26A26,26,0,0,1,54,0H238a27,27,0,0,1,27,27v5a27,27,0,0,1-27,27H147v88h91a27,27,0,0,1,27,27v5a27,27,0,0,1-27,27H58v90H238a27,27,0,0,1,27,27v2a27,27,0,0,1-27,27Z" transform="translate(1327 992)"/>
      <path id="Subtraction_6" data-name="Subtraction 6" d="M229.886,352.556a27,27,0,0,1-24.079-14.748L139.071,206.83a27.322,27.322,0,0,1-1.246-2.83H120V329a23,23,0,0,1-23,23H23A23,23,0,0,1,0,329V19A19,19,0,0,1,19,0H248a19,19,0,0,1,19,19V185a19,19,0,0,1-19,19H206.09l54.068,106.114a26.978,26.978,0,0,1-11.8,36.315l-6.237,3.178A26.706,26.706,0,0,1,229.886,352.556ZM60,58v87h88V58Z" transform="translate(1644 992)"/>
      <path id="Union_10" data-name="Union 10" d="M132,352H54a24,24,0,0,1-24-24v-6a24,24,0,0,1,24-24H204V231.128H94V231H28A27.977,27.977,0,0,1,0,203V28A27.977,27.977,0,0,1,28,0H236a30,30,0,1,1,0,60H58v58H242a22,22,0,0,1,22,22V330a22,22,0,0,1-22,22Z" transform="translate(1966 992)"/>
    </g>
    <g id="Group_7" data-name="Group 7" transform="translate(-25)">
      <line id="Line_1" data-name="Line 1" x2="731" transform="translate(314.5 1600.5)" fill="none" stroke="#000" stroke-linecap="round" stroke-width="12"/>
      <line id="Line_2" data-name="Line 2" x2="707" transform="translate(1572.5 1600.5)" fill="none" stroke="#000" stroke-linecap="round" stroke-width="12"/>
      <g id="Group_5" data-name="Group 5">
        <path id="Path_12" data-name="Path 12" d="M0,5.717V210H79" transform="translate(1218.5 1398.5)" fill="none" stroke="#000" stroke-linecap="round" stroke-width="12"/>
        <path id="Path_13" data-name="Path 13" d="M0-1.587S0-22.509,0-28.876s-5.467-28.593-39.709-28.5-39.955,20.256-39.955,28.5v144.43c0,9.476,5.566,28.552,40.392,28.9S0,126.642,0,115.554s0-25.1,0-25.1" transform="translate(1189.5 1463.5)" fill="none" stroke="#000" stroke-linecap="round" stroke-linejoin="round" stroke-width="12"/>
        <path id="Path_14" data-name="Path 14" d="M0,0S0,168.427,0,173.111s2.481,30.911,37.566,29.537S72.756,177.473,73,173.111,73,0,73,0" transform="translate(1311.5 1405.5)" fill="none" stroke="#000" stroke-linecap="round" stroke-linejoin="round" stroke-width="12"/>
        <g id="Group_3" data-name="Group 3">
          <path id="Path_15" data-name="Path 15" d="M1427.648,1405.5h43.257c5.257,0,30.354,13.133,28.911,51.769s-28.911,49.772-28.911,49.772,28.708,11.7,28.911,48.185-24.924,52.2-28.911,52.784-43.679,0-43.679,0l.422-100.969Z" fill="none" stroke="#000" stroke-width="12"/>
          <path id="Path_16" data-name="Path 16" d="M0,0H43" transform="translate(1427.5 1507.5)" fill="none" stroke="#000" stroke-width="12"/>
        </g>
      </g>
    </g>
  </g>
</svg>
